<?xml version="1.0" encoding="utf-8"?>
<svg width="18" height="20" viewBox="0 0 18 20" fill="none" xmlns="http://www.w3.org/2000/svg">
    <path fill-rule="evenodd" clip-rule="evenodd" d="M13.0339 0.413011L17.7139 5.36301C17.8939 5.5534 18.0039 5.8284 17.9939 6.10339V13.1265C17.9939 13.412 17.8939 13.6765 17.7039 13.8774L13.0239 18.8274C12.8339 19.0178 12.5839 19.1342 12.3139 19.1342H5.68391C5.42391 19.1342 5.16391 19.0178 4.97391 18.8169L0.293906 13.8669C0.113906 13.6659 0.00390625 13.4015 0.00390625 13.1159V6.10339C0.00390625 5.8284 0.113906 5.5534 0.293906 5.36301L4.98391 0.402434C5.16391 0.212049 5.42391 0.0957031 5.68391 0.0957031H12.3239C12.5839 0.0957031 12.8439 0.212049 13.0339 0.413011ZM11.9039 17.0188L16.0039 12.6822V6.54763L11.9039 2.21109H6.10391L2.00391 6.54763V12.6822L6.10391 17.0188H11.9039ZM9.00391 12.788C8.45162 12.788 8.00391 13.2616 8.00391 13.8457C8.00391 14.4298 8.45162 14.9034 9.00391 14.9034C9.55619 14.9034 10.0039 14.4298 10.0039 13.8457C10.0039 13.2616 9.55619 12.788 9.00391 12.788ZM8.00391 5.38416C8.00391 4.80243 8.45391 4.32647 9.00391 4.32647C9.55391 4.32647 10.0039 4.80243 10.0039 5.38416V10.6726C10.0039 11.2544 9.55391 11.7303 9.00391 11.7303C8.45391 11.7303 8.00391 11.2544 8.00391 10.6726V5.38416Z" fill="#FF0000"/>
</svg>