<?xml version="1.0" encoding="utf-8"?>
<svg width="20" height="22" viewBox="0 0 20 22" fill="none" xmlns="http://www.w3.org/2000/svg">
    <path fill-rule="evenodd" clip-rule="evenodd" d="M10 0.0380859C4.48 0.0380859 0 4.77655 0 10.615C0 16.4535 4.48 21.1919 10 21.1919C15.52 21.1919 20 16.4535 20 10.615C20 4.77655 15.52 0.0380859 10 0.0380859ZM10 19.0765C5.59 19.0765 2 15.2794 2 10.615C2 5.95059 5.59 2.15347 10 2.15347C14.41 2.15347 18 5.95059 18 10.615C18 15.2794 14.41 19.0765 10 19.0765ZM8 12.9102L13.88 6.69097C14.27 6.27847 14.91 6.27847 15.3 6.69097C15.69 7.10347 15.69 7.76982 15.3 8.18232L8.71 15.1525C8.32 15.565 7.69 15.565 7.3 15.1525L4.71 12.4131C4.32 12.0006 4.32 11.3342 4.71 10.9217C4.89683 10.7237 5.15048 10.6124 5.415 10.6124C5.67952 10.6124 5.93317 10.7237 6.12 10.9217L8 12.9102Z" fill="#2EB23B"/>
</svg>