<?xml version="1.0" encoding="utf-8"?>
<svg width="20" height="20" viewBox="0 0 20 18" fill="none" xmlns="http://www.w3.org/2000/svg">
    <path fill-rule="evenodd" clip-rule="evenodd" d="M2.47012 17.5036C0.930121 17.5036 -0.0298788 15.8336 0.740121 14.5036L8.27012 1.49359C9.04012 0.163594 10.9601 0.163594 11.7301 1.49359L19.2601 14.5036C20.0301 15.8336 19.0701 17.5036 17.5301 17.5036H2.47012ZM17.5301 15.5036L10.0001 2.49359L2.47012 15.5036H17.5301ZM9.00012 7.50359V9.50359C9.00012 10.0536 9.45012 10.5036 10.0001 10.5036C10.5501 10.5036 11.0001 10.0536 11.0001 9.50359V7.50359C11.0001 6.95359 10.5501 6.50359 10.0001 6.50359C9.45012 6.50359 9.00012 6.95359 9.00012 7.50359ZM11.0001 14.5036V12.5036H9.00012V14.5036H11.0001Z" fill="rgb(252, 152, 3)"/>
</svg>